<?xml version="1.0"?>
<svg xmlns="http://www.w3.org/2000/svg" xmlns:xlink="http://www.w3.org/1999/xlink" version="1.1" id="Capa_1" x="0px" y="0px" viewBox="0 0 512 512" style="enable-background:new 0 0 512 512;" xml:space="preserve" width="512px" height="512px" class=""><g><g>
	<path style="fill:#028ABF" d="M243.022,72.806l-33.118,299.325c-1.541,13.917-6.266,26.78-13.411,37.885   c-4.301,6.679-9.471,12.728-15.355,17.991c-15.634,14.01-36.272,22.448-58.699,22.448c-44.668,0-82.242-33.449-87.422-77.807   L0.059,72.899c-0.765-6.524,6.049-11.394,11.88-8.406c6.938,3.547,10.95,9.306,19.49,11.632c2.347,0.641,5.035,1.013,8.22,1.013   c20.462,0,20.462-15.592,40.925-15.592s20.462,15.592,40.925,15.592c20.452,0,20.452-15.592,40.914-15.592   s20.462,15.592,40.925,15.592c14.817,0,18.901-8.168,27.793-12.677C236.963,61.494,243.746,66.313,243.022,72.806z" data-original="#1E81CE" class="" data-old_color="#0289BD"/>
	<path style="fill:#028ABF" d="M511.948,72.806L478.83,372.131c-1.541,13.917-6.276,26.78-13.411,37.885   c-4.301,6.679-9.471,12.728-15.355,17.991c-15.644,14.01-36.282,22.448-58.709,22.448c-44.657,0-82.232-33.449-87.412-77.807   L268.975,72.899c-0.755-6.524,6.049-11.394,11.891-8.406c6.928,3.547,10.95,9.306,19.49,11.622c2.347,0.651,5.035,1.024,8.22,1.024   c20.462,0,20.462-15.592,40.914-15.592c20.462,0,20.462,15.592,40.925,15.592s20.462-15.592,40.925-15.592   c20.462,0,20.462,15.592,40.925,15.592c14.807,0,18.901-8.168,27.783-12.677C505.879,61.494,512.662,66.313,511.948,72.806z" data-original="#1E81CE" class="" data-old_color="#0289BD"/>
</g><g>
	<path style="fill:#0C9BFD" d="M243.022,72.806l-33.118,299.325c-1.541,13.917-6.266,26.78-13.411,37.885   c-13.483,8.334-29.355,13.121-46.239,13.121c-44.668,0-82.242-33.449-87.422-77.807L31.43,76.125   c2.347,0.641,5.035,1.013,8.22,1.013c20.462,0,20.462-15.592,40.925-15.592s20.462,15.592,40.925,15.592   c20.452,0,20.452-15.592,40.914-15.592s20.462,15.592,40.925,15.592c14.817,0,18.901-8.168,27.793-12.677   C236.963,61.494,243.746,66.313,243.022,72.806z" data-original="#3D9AE2" class="" data-old_color="#0C9AFC"/>
	<path style="fill:#0C9BFD" d="M511.948,72.806L478.83,372.131c-1.541,13.917-6.276,26.78-13.411,37.885   c-13.493,8.334-29.365,13.121-46.25,13.121c-44.657,0-82.242-33.449-87.412-77.807L300.356,76.115   c2.347,0.651,5.035,1.024,8.22,1.024c20.462,0,20.462-15.592,40.914-15.592c20.462,0,20.462,15.592,40.925,15.592   s20.462-15.592,40.925-15.592c20.462,0,20.462,15.592,40.925,15.592c14.807,0,18.901-8.168,27.783-12.677   C505.879,61.494,512.662,66.313,511.948,72.806z" data-original="#3D9AE2" class="" data-old_color="#0C9AFC"/>
</g><g>
	<path style="fill:#028ABF" d="M55.163,83.148c-0.61-4.239-4.543-7.18-8.781-6.571c-4.239,0.61-7.181,4.541-6.571,8.78   l12.991,85.121c0.556,3.864,3.872,6.652,7.666,6.652c0.367,0,0.74-0.026,1.115-0.08c4.239-0.61,7.181-4.541,6.571-8.781   L55.163,83.148z" data-original="#165C92" class="" data-old_color="#168DE2"/>
	<path style="fill:#028ABF" d="M200.325,77.18c-4.242-0.602-8.162,2.358-8.757,6.602l-14.703,104.651   c-0.596,4.241,2.36,8.162,6.602,8.757c0.366,0.052,0.728,0.077,1.088,0.077c3.805,0,7.126-2.802,7.669-6.678l14.703-104.651   C207.523,81.695,204.568,77.774,200.325,77.18z" data-original="#165C92" class="" data-old_color="#168DE2"/>
	<path style="fill:#028ABF" d="M122.899,184.938c-4.284,0-7.755,3.471-7.755,7.755v23.708c0,4.284,3.471,7.755,7.755,7.755   s7.755-3.471,7.755-7.755v-23.708C130.654,188.409,127.183,184.938,122.899,184.938z" data-original="#165C92" class="" data-old_color="#168DE2"/>
	<path style="fill:#028ABF" d="M122.899,77.222c-4.284,0-7.755,3.471-7.755,7.755v76.696c0,4.284,3.471,7.755,7.755,7.755   s7.755-3.471,7.755-7.755V84.977C130.654,80.694,127.183,77.222,122.899,77.222z" data-original="#165C92" class="" data-old_color="#168DE2"/>
	<path style="fill:#028ABF" d="M324.774,83.367c-0.611-4.239-4.536-7.18-8.78-6.571c-4.239,0.61-7.181,4.541-6.571,8.78   l12.991,90.291c0.556,3.864,3.872,6.652,7.666,6.652c0.367,0,0.74-0.026,1.115-0.08c4.239-0.61,7.181-4.541,6.571-8.781   L324.774,83.367z" data-original="#165C92" class="" data-old_color="#168DE2"/>
	<path style="fill:#028ABF" d="M469.49,77.216c-4.237-0.602-8.163,2.358-8.757,6.602l-15.59,111.077   c-0.596,4.241,2.36,8.162,6.602,8.757c0.366,0.052,0.728,0.077,1.088,0.077c3.805,0,7.126-2.802,7.669-6.678l15.59-111.077   C476.688,81.731,473.732,77.81,469.49,77.216z" data-original="#165C92" class="" data-old_color="#168DE2"/>
	<path style="fill:#028ABF" d="M395.656,77.06c-4.284,0-7.755,3.471-7.755,7.755v22.674c0,4.284,3.471,7.755,7.755,7.755   s7.755-3.471,7.755-7.755V84.814C403.411,80.532,399.94,77.06,395.656,77.06z" data-original="#165C92" class="" data-old_color="#168DE2"/>
	<path style="fill:#028ABF" d="M395.656,130.753c-4.284,0-7.755,3.471-7.755,7.755v82.718c0,4.284,3.471,7.755,7.755,7.755   s7.755-3.471,7.755-7.755v-82.718C403.411,134.224,399.94,130.753,395.656,130.753z" data-original="#165C92" class="" data-old_color="#168DE2"/>
</g><g>
	<path style="fill:#067FAE" d="M169.61,309.679v53.27c0,17.381-9.347,32.674-23.254,41.121c-7.258,4.405-15.758,6.948-24.815,6.948   c-26.439,0-48.069-21.631-48.069-48.069v-53.27c0-26.439,21.631-48.069,48.069-48.069c9.058,0,17.557,2.544,24.815,6.948   c3.329,2.027,6.39,4.436,9.13,7.176C164.202,284.44,169.61,296.465,169.61,309.679z" data-original="#1D1D1F" class="active-path" data-old_color="#057FAF"/>
	<path style="fill:#067FAE" d="M438.526,309.679v53.27c0,17.381-9.347,32.674-23.254,41.121   c-7.258,4.405-15.758,6.948-24.815,6.948c-26.439,0-48.069-21.631-48.069-48.069v-53.27c0-26.439,21.631-48.069,48.069-48.069   c9.058,0,17.557,2.544,24.815,6.948c3.329,2.027,6.39,4.436,9.13,7.176C433.118,284.44,438.526,296.465,438.526,309.679z" data-original="#1D1D1F" class="active-path" data-old_color="#057FAF"/>
</g><g>
	<path style="fill:#028ABF" d="M169.61,309.679v53.27c0,17.381-9.347,32.674-23.254,41.121   c-13.907-8.448-23.254-23.74-23.254-41.121v-53.27c0-17.381,9.347-32.674,23.254-41.121c3.329,2.027,6.39,4.436,9.13,7.176   C164.202,284.44,169.61,296.465,169.61,309.679z" data-original="#2D2D30" class="" data-old_color="#053B68"/>
	<path style="fill:#028ABF" d="M438.526,309.679v53.27c0,17.381-9.347,32.674-23.254,41.121   c-13.907-8.448-23.254-23.74-23.254-41.121v-53.27c0-17.381,9.347-32.674,23.254-41.121c3.329,2.027,6.39,4.436,9.13,7.176   C433.118,284.44,438.526,296.465,438.526,309.679z" data-original="#2D2D30" class="" data-old_color="#053B68"/>
</g></g> </svg>
