<?xml version="1.0"?>
<svg xmlns="http://www.w3.org/2000/svg" xmlns:xlink="http://www.w3.org/1999/xlink" version="1.1" id="Capa_1" x="0px" y="0px" viewBox="0 0 512 512" style="enable-background:new 0 0 512 512;" xml:space="preserve" width="512px" height="512px" class=""><g><path style="fill:#00D6FF" d="M431.555,193.469c-4.438-58.675-53.451-104.902-113.261-104.902S209.47,134.794,205.033,193.469  c-43.929,15.695-75.369,57.668-75.369,106.991c0,62.734,50.856,113.589,113.589,113.589c28.765,0,55.028-10.698,75.041-28.325  c20.013,17.627,46.276,28.325,75.041,28.325c62.734,0,113.589-50.856,113.589-113.589  C506.924,251.137,475.484,209.164,431.555,193.469z" data-original="#C3EA21" class="" data-old_color="#00A8FF"/><path style="fill:#00CEFF" d="M431.555,193.469c-4.438-58.675-53.451-104.902-113.261-104.902c0,56.623,0,223.196,0,297.157  c20.013,17.627,46.276,28.325,75.041,28.325c62.734,0,113.589-50.856,113.589-113.589  C506.924,251.137,475.484,209.164,431.555,193.469z" data-original="#8ADB53" class="" data-old_color="#00B7FF"/><polygon style="fill:#0099FF" points="386.911,264.585 372.949,238.032 333.294,258.883 333.294,215.051 303.294,215.051   303.294,313.312 263.638,292.461 249.676,319.014 303.294,347.206 303.294,512 333.294,512 333.294,292.777 " data-original="#BA7400" class="active-path" data-old_color="#BA7400"/><path style="fill:#00D6FF" d="M118.096,372.669L118.096,372.669c-67.843,0-120.395-59.36-112.171-126.703l20.082-164.44  C31.691,34.985,71.208,0,118.096,0l0,0c46.888,0,86.404,34.985,92.088,81.526l20.082,164.44  C238.491,313.309,185.939,372.669,118.096,372.669z" data-original="#4FC16E" class="" data-old_color="#00CEFF"/><path style="fill:#00CEFF" d="M118.096,372.669L118.096,372.669c0-75.676,0-313.417,0-372.669l0,0  c46.888,0,86.404,34.985,92.088,81.526l20.082,164.44C238.491,313.309,185.939,372.669,118.096,372.669z" data-original="#369151" class="" data-old_color="#00D6FF"/><polygon style="fill:#0099FF" points="172.752,244.604 133.096,265.455 133.096,189.253 186.713,161.062 172.752,134.509   133.096,155.36 133.096,111.527 103.096,111.527 103.096,210.407 63.441,189.557 49.479,216.109 103.096,244.301 103.096,512   133.096,512 133.096,299.349 186.713,271.157 " data-original="#804D00" class="" data-old_color="#0091FF"/></g> </svg>
