<?xml version="1.0"?>
<svg xmlns="http://www.w3.org/2000/svg" xmlns:xlink="http://www.w3.org/1999/xlink" version="1.1" id="Capa_1" x="0px" y="0px" viewBox="0 0 512 512" style="enable-background:new 0 0 512 512;" xml:space="preserve" width="512px" height="512px" class=""><g><g>
	<g>
		<polygon points="409.888,208 385.888,256 416,256 416,208   " data-original="#000000" class="active-path" data-old_color="#7e7e7e" fill="#7e7e7e"/>
	</g>
</g><g>
	<g>
		<path d="M480,80H32C14.368,80,0,94.368,0,112v288c0,17.664,14.368,32,32,32h448c17.664,0,32-14.336,32-32V112    C512,94.368,497.664,80,480,80z M112,336H80c-8.832,0-16-7.168-16-16V208c-8.832,0-16-7.168-16-16c0-8.832,7.168-16,16-16h16    c8.832,0,16,7.168,16,16v112h4.896l44.096-117.632c3.104-8.288,12.32-12.448,20.608-9.344c8.256,3.104,12.448,12.32,9.344,20.608    l-48,128C124.64,331.872,118.656,336,112,336z M176,336c-1.28,0-2.592-0.16-3.904-0.48c-8.576-2.144-13.792-10.848-11.648-19.392    l32-128c2.176-8.608,10.88-13.92,19.424-11.648c8.576,2.144,13.792,10.816,11.648,19.392l-32,128    C189.696,331.168,183.2,336,176,336z M292.768,328.96c-8.704,4.64-18.624,6.944-29.632,6.944    c-10.592,0.032-22.176-2.112-34.72-6.368c-8.352-2.848-12.832-11.936-9.984-20.32c2.848-8.352,11.872-12.768,20.288-10.016    c16.64,5.696,30.176,6.176,39.008,1.504c7.328-3.872,9.792-10.528,10.528-13.216c0.96-3.52-4.704-11.296-19.456-20.096    c-9.504-5.632-29.344-17.44-34.208-37.184c-1.76-7.264-2.176-18.656,5.92-31.744c19.936-32.192,68.416-20.992,73.856-19.584    c8.576,2.176,13.728,10.848,11.552,19.392c-2.176,8.544-10.784,13.728-19.424,11.616c-9.568-2.432-32.768-4.352-38.784,5.376    c-2.72,4.448-2.208,6.592-2.048,7.328c1.664,6.72,14.656,14.432,19.52,17.344c35.04,20.896,37.824,41.984,33.984,56    C315.328,310.016,305.696,322.08,292.768,328.96z M448,320c0,8.832-7.168,16-16,16c-8.832,0-16-7.168-16-16v-32h-46.112    l-19.584,39.168C347.488,332.736,341.856,336,336,336c-2.4,0-4.832-0.544-7.168-1.696c-7.904-3.968-11.104-13.568-7.168-21.472    l64-128C388.416,179.424,393.952,176,400,176h32c8.832,0,16,7.168,16,16V320z" data-original="#000000" class="active-path" data-old_color="#7e7e7e" fill="#7e7e7e"/>
	</g>
</g></g> </svg>
